# xmcd
#
# Track frame offsets: 
#        183
#        56070
#        81263
#        104900
#        124598
#        134883
#        154175
#        166248
#        171388
#        175835
#        181378
#        192888
#        208285
#        214698
#        224395
#        233510
#        257563
#        272745
#        297390
#        311385
#
# Disc length: 4603 seconds
#
# Revision: 2
# Processed by: cddbd v1.5.1PL2 Copyright (c) Steve Scherf et al.
# Submitted via: ExactAudioCopy v0.95b3
#
DISCID=3811f914
DTITLE=Carmina Burana - Le Grand Mystère de la Passion [CD2)
DYEAR=1990
DGENRE=Classical
TTITLE0=Deus, Deus meus
TTITLE1=Jésus au Mont des Oliviers
TTITLE2=Arrestation de Jésus
TTITLE3=Angelis suis
TTITLE4=Comprehendentes autem eum
TTITLE5=Collegerunt pontifices
TTITLE6=Astiterunt reges terrae
TTITLE7=Jésus devant Pilate et Hérode
TTITLE8=Astiterunt reges
TTITLE9=Jésus devant Pilate
TTITLE10=Omnes amici mei
TTITLE11=Dernier dialogue entre Pilate et Jésus
TTITLE12=Penitet me graviter
TTITLE13=Lamentation des femmes de Jérusalem pendant le chemin de croi
TTITLE13=x
TTITLE14=Crucifixion
TTITLE15=Awe, awe
TTITLE16=Flete fideles
TTITLE17=Planctus ante nescia
TTITLE18=Jean et dernières paroles du Christ
TTITLE19=Crux fidelis
EXTD=
EXTT0=
EXTT1=
EXTT2=
EXTT3=
EXTT4=
EXTT5=
EXTT6=
EXTT7=
EXTT8=
EXTT9=
EXTT10=
EXTT11=
EXTT12=
EXTT13=
EXTT14=
EXTT15=
EXTT16=
EXTT17=
EXTT18=
EXTT19=
PLAYORDER=
